<svg width="24" height="25" viewBox="0 0 24 25" fill="none" xmlns="http://www.w3.org/2000/svg">
<path d="M9.94767 20.219C12.0309 20.219 13.976 19.5435 15.5572 18.4177L21.5056 24.347C21.7817 24.6222 22.1456 24.7598 22.5221 24.7598C23.3378 24.7598 23.9276 24.1343 23.9276 23.3337C23.9276 22.9585 23.8021 22.6082 23.526 22.333L17.6153 16.4287C18.8577 14.8025 19.5981 12.7886 19.5981 10.5995C19.5981 5.30813 15.256 0.97998 9.94767 0.97998C4.62676 0.97998 0.297241 5.30813 0.297241 10.5995C0.297241 15.8908 4.62676 20.219 9.94767 20.219ZM9.94767 18.1425C5.79384 18.1425 2.38043 14.7275 2.38043 10.5995C2.38043 6.47147 5.79384 3.05649 9.94767 3.05649C14.0889 3.05649 17.5149 6.47147 17.5149 10.5995C17.5149 14.7275 14.0889 18.1425 9.94767 18.1425Z" fill="#3C3C43" fill-opacity="0.6"/>
</svg>
